Normalized EMG Linear Envelopes
nRows=205
nColumns=4

endheader
time	 med_gas_r	  soleus_r	 tib_ant_r	
4.18723	  0.081751	  0.120729	  0.026131	
4.24973	  0.080327	  0.120914	  0.027226	
4.31222	  0.081517	  0.120330	  0.027800	
4.37472	  0.085818	  0.118786	  0.027730	
4.43722	  0.091657	  0.115805	  0.027423	
4.49971	  0.095630	  0.110883	  0.027388	
4.56221	  0.094298	  0.105406	  0.027694	
4.6247	  0.088473	  0.102676	  0.027982	
4.6872	  0.084496	  0.105075	  0.027962	
4.7497	  0.088082	  0.111429	  0.027691	
4.81219	  0.097207	  0.118034	  0.027400	
4.87469	  0.104068	  0.122596	  0.027167	
4.93718	  0.104298	  0.124979	  0.026851	
4.99968	  0.100174	  0.124906	  0.026432	
5.06218	  0.095054	  0.123495	  0.026143	
5.12467	  0.090597	  0.124657	  0.026095	
5.18717	  0.088696	  0.129525	  0.026187	
5.24966	  0.090172	  0.132706	  0.026448	
5.31216	  0.092927	  0.128814	  0.026928	
5.37466	  0.095348	  0.119846	  0.027376	
5.43715	  0.098334	  0.112710	  0.027516	
5.49965	  0.101626	  0.111579	  0.027479	
5.56214	  0.103062	  0.115108	  0.027590	
5.62464	  0.102447	  0.119721	  0.027800	
5.68714	  0.101482	  0.123185	  0.027711	
5.74963	  0.101465	  0.125083	  0.027308	
5.81213	  0.103741	  0.125501	  0.027659	
5.87462	  0.108691	  0.124174	  0.030966	
5.93712	  0.113865	  0.120978	  0.039548	
5.99962	  0.116445	  0.117132	  0.053913	
6.06211	  0.116572	  0.115131	  0.072477	
6.12461	  0.116462	  0.116513	  0.094333	
6.1871	  0.117440	  0.119878	  0.120037	
6.2496	  0.119104	  0.121936	  0.148081	
6.3121	  0.120433	  0.120567	  0.175256	
6.37459	  0.120798	  0.116631	  0.201409	
6.43709	  0.120758	  0.112638	  0.226429	
6.49958	  0.121315	  0.110092	  0.244716	
6.56208	  0.121991	  0.108819	  0.252829	
6.62458	  0.121833	  0.108229	  0.257916	
6.68707	  0.121974	  0.108437	  0.269580	
6.74957	  0.124081	  0.109958	  0.288359	
6.81206	  0.126754	  0.112433	  0.306052	
6.87456	  0.126637	  0.115057	  0.314031	
6.93706	  0.122956	  0.118177	  0.310906	
6.99955	  0.118102	  0.122567	  0.302044	
7.06205	  0.114326	  0.127364	  0.292769	
7.12454	  0.112546	  0.129698	  0.286225	
7.18704	  0.114080	  0.126497	  0.284390	
7.24954	  0.122056	  0.118319	  0.284385	
7.31203	  0.140597	  0.113103	  0.277935	
7.37453	  0.170330	  0.124505	  0.259564	
7.43702	  0.204005	  0.163624	  0.232326	
7.49952	  0.231112	  0.228777	  0.204990	
7.56202	  0.245349	  0.298822	  0.184932	
7.62451	  0.243842	  0.343275	  0.172822	
7.68701	  0.228614	  0.352898	  0.164915	
7.7495	  0.211038	  0.353687	  0.158861	
7.812	  0.201463	  0.376417	  0.154991	
7.8745	  0.199295	  0.422716	  0.154597	
7.93699	  0.203057	  0.475704	  0.158192	
7.99949	  0.213700	  0.530191	  0.163980	
8.06198	  0.223860	  0.590018	  0.168570	
8.12448	  0.224847	  0.648836	  0.170014	
8.18698	  0.219145	  0.701290	  0.169188	
8.24947	  0.210132	  0.757937	  0.167775	
8.31197	  0.195483	  0.823156	  0.166210	
8.37446	  0.179787	  0.875393	  0.164114	
8.43696	  0.175484	  0.885979	  0.161047	
8.49946	  0.186339	  0.845805	  0.156110	
8.56195	  0.199852	  0.775900	  0.149099	
8.62445	  0.199909	  0.719113	  0.142629	
8.68694	  0.183771	  0.706027	  0.140595	
8.74944	  0.160911	  0.726054	  0.144077	
8.81194	  0.140303	  0.747791	  0.150109	
8.87443	  0.127268	  0.760316	  0.154847	
8.93693	  0.125006	  0.773647	  0.157190	
8.99942	  0.131931	  0.789972	  0.158092	
9.06192	  0.142102	  0.798122	  0.157930	
9.12442	  0.149490	  0.789327	  0.157076	
9.18691	  0.150905	  0.764882	  0.157216	
9.24941	  0.147429	  0.731250	  0.159611	
9.3119	  0.143054	  0.695670	  0.163331	
9.3744	  0.140825	  0.669903	  0.166433	
9.4369	  0.140472	  0.666631	  0.168185	
9.49939	  0.139346	  0.684223	  0.169457	
9.56189	  0.136129	  0.707066	  0.170928	
9.62438	  0.133331	  0.723559	  0.171653	
9.68688	  0.134821	  0.732110	  0.170108	
9.74938	  0.142071	  0.735393	  0.166185	
9.81187	  0.154995	  0.739281	  0.161694	
9.87437	  0.174135	  0.745233	  0.158989	
9.93686	  0.195902	  0.741990	  0.158810	
9.99936	  0.209720	  0.719962	  0.159341	
10.0619	  0.210376	  0.683876	  0.157816	
10.1244	  0.205385	  0.642257	  0.153474	
10.1868	  0.200334	  0.600089	  0.149199	
10.2493	  0.191926	  0.558666	  0.149137	
10.3118	  0.182488	  0.517170	  0.154236	
10.3743	  0.181379	  0.488266	  0.161926	
10.4368	  0.186845	  0.493744	  0.169124	
10.4993	  0.185713	  0.524427	  0.173592	
10.5618	  0.174975	  0.539307	  0.174877	
10.6243	  0.168501	  0.523723	  0.174508	
10.6868	  0.178257	  0.513635	  0.173407	
10.7493	  0.198385	  0.542835	  0.171179	
10.8118	  0.214307	  0.588635	  0.168075	
10.8743	  0.220494	  0.597524	  0.165121	
10.9368	  0.218436	  0.558332	  0.163719	
10.9993	  0.207729	  0.513214	  0.165375	
11.0618	  0.193505	  0.493700	  0.170059	
11.1243	  0.189152	  0.490494	  0.176653	
11.1868	  0.199046	  0.488955	  0.185001	
11.2493	  0.211965	  0.486841	  0.195575	
11.3118	  0.219604	  0.478949	  0.208752	
11.3743	  0.225266	  0.457764	  0.223442	
11.4368	  0.229402	  0.420585	  0.234152	
11.4993	  0.226780	  0.369967	  0.234121	
11.5618	  0.217947	  0.320626	  0.223554	
11.6243	  0.206496	  0.294429	  0.209526	
11.6868	  0.194548	  0.296261	  0.198082	
11.7492	  0.188755	  0.307475	  0.190793	
11.8117	  0.193012	  0.312071	  0.186343	
11.8742	  0.196624	  0.314840	  0.182277	
11.9367	  0.189638	  0.322954	  0.177562	
11.9992	  0.180815	  0.328514	  0.173665	
12.0617	  0.181250	  0.323817	  0.171627	
12.1242	  0.184118	  0.318639	  0.170517	
12.1867	  0.178291	  0.329817	  0.169208	
12.2492	  0.168158	  0.357744	  0.167226	
12.3117	  0.165881	  0.378092	  0.164640	
12.3742	  0.172790	  0.363714	  0.162345	
12.4367	  0.178958	  0.316127	  0.161267	
12.4992	  0.180061	  0.264390	  0.160640	
12.5617	  0.182839	  0.235695	  0.158184	
12.6242	  0.189612	  0.239934	  0.153163	
12.6867	  0.194544	  0.273969	  0.148612	
12.7492	  0.198240	  0.323212	  0.148740	
12.8117	  0.204349	  0.364321	  0.153905	
12.8742	  0.204313	  0.381668	  0.159533	
12.9367	  0.187398	  0.375198	  0.160224	
12.9992	  0.158758	  0.345399	  0.153440	
13.0617	  0.131499	  0.290339	  0.139940	
13.1242	  0.111239	  0.223336	  0.123231	
13.1867	  0.097449	  0.169783	  0.107851	
13.2492	  0.089113	  0.141828	  0.096183	
13.3116	  0.084624	  0.131434	  0.087601	
13.3741	  0.082419	  0.126461	  0.080758	
13.4366	  0.082263	  0.122420	  0.075413	
13.4991	  0.083971	  0.119988	  0.072183	
13.5616	  0.086877	  0.119604	  0.071373	
13.6241	  0.090910	  0.120379	  0.071551	
13.6866	  0.096057	  0.119981	  0.069704	
13.7491	  0.100756	  0.115737	  0.064695	
13.8116	  0.102503	  0.108467	  0.059071	
13.8741	  0.100147	  0.102782	  0.055533	
13.9366	  0.095106	  0.102668	  0.054301	
13.9991	  0.091175	  0.108822	  0.054332	
14.0616	  0.093385	  0.118341	  0.054410	
14.1241	  0.105723	  0.125646	  0.054171	
14.1866	  0.127587	  0.127015	  0.054697	
14.2491	  0.150120	  0.124691	  0.056451	
14.3116	  0.159577	  0.123022	  0.058502	
14.3741	  0.151477	  0.121628	  0.060253	
14.4366	  0.138644	  0.116920	  0.061436	
14.4991	  0.137105	  0.108930	  0.061723	
14.5616	  0.146413	  0.101822	  0.061236	
14.6241	  0.153108	  0.098972	  0.059732	
14.6866	  0.152919	  0.101138	  0.056974	
14.7491	  0.156178	  0.107241	  0.054374	
14.8116	  0.168116	  0.114036	  0.053556	
14.874	  0.180364	  0.117776	  0.054333	
14.9365	  0.187102	  0.118146	  0.055264	
14.999	  0.190777	  0.117925	  0.054782	
15.0615	  0.189208	  0.118497	  0.052284	
15.124	  0.178685	  0.118581	  0.048918	
15.1865	  0.167470	  0.117043	  0.046792	
15.249	  0.165665	  0.114268	  0.047322	
15.3115	  0.170197	  0.111144	  0.049851	
15.374	  0.174707	  0.108473	  0.052219	
15.4365	  0.179364	  0.106809	  0.053203	
15.499	  0.181303	  0.106194	  0.052894	
15.5615	  0.175069	  0.106501	  0.051202	
15.624	  0.166710	  0.107360	  0.048475	
15.6865	  0.166245	  0.107427	  0.046370	
15.749	  0.169517	  0.105647	  0.045701	
15.8115	  0.167508	  0.103625	  0.044873	
15.874	  0.163429	  0.104344	  0.042468	
15.9365	  0.162856	  0.107946	  0.039798	
15.999	  0.159388	  0.111056	  0.039324	
16.0615	  0.144546	  0.110829	  0.041685	
16.124	  0.122416	  0.107717	  0.044759	
16.1865	  0.105029	  0.104304	  0.045509	
16.249	  0.099769	  0.103128	  0.043215	
16.3115	  0.107340	  0.104869	  0.039887	
16.374	  0.125167	  0.107618	  0.037475	
16.4364	  0.145056	  0.109150	  0.036334	
16.4989	  0.154737	  0.109701	  0.035908	
16.5614	  0.150635	  0.110466	  0.035568	
16.6239	  0.143472	  0.110802	  0.035080	
16.6864	  0.146287	  0.109355	  0.034668	
16.7489	  0.158673	  0.105861	  0.034493	
16.8114	  0.162574	  0.099938	  0.034192	
16.8739	  0.137903	  0.090611	  0.033165	
16.9364	  0.086439	  0.078445	  0.031379	
